<svg width="471" height="147" viewBox="0 0 471 147" fill="none" xmlns="http://www.w3.org/2000/svg">
<path d="M172.56 102.88L167.72 91.68L162.92 102.88H172.56ZM165.52 85.8H170.08L182.4 114H177.2L174.36 107.24H161.12L158.24 114H153.2L165.52 85.8ZM200.722 99.88C202.482 99.88 203.882 99.4667 204.922 98.64C205.962 97.7867 206.482 96.64 206.482 95.2V95.12C206.482 93.6 205.975 92.4533 204.962 91.68C203.948 90.88 202.522 90.48 200.682 90.48H193.522V99.88H200.722ZM188.602 86H201.082C202.842 86 204.402 86.2533 205.762 86.76C207.122 87.24 208.255 87.92 209.162 88.8C209.908 89.5733 210.482 90.4667 210.882 91.48C211.282 92.4933 211.482 93.6133 211.482 94.84V94.92C211.482 96.0667 211.308 97.1067 210.962 98.04C210.642 98.9467 210.188 99.76 209.602 100.48C209.015 101.173 208.308 101.773 207.482 102.28C206.682 102.76 205.788 103.133 204.802 103.4L212.362 114H206.562L199.682 104.24H199.602H193.522V114H188.602V86ZM232.348 109.96C233.281 109.96 234.148 109.84 234.948 109.6C235.748 109.36 236.481 109.027 237.148 108.6L232.348 104.52L235.508 100.92L240.348 105.32C241.308 103.853 241.788 102.107 241.788 100.08V100C241.788 98.64 241.548 97.36 241.068 96.16C240.614 94.9333 239.961 93.88 239.108 93C238.281 92.0933 237.281 91.3733 236.108 90.84C234.934 90.3067 233.654 90.04 232.268 90.04C230.881 90.04 229.601 90.3067 228.428 90.84C227.281 91.3467 226.294 92.0533 225.468 92.96C224.641 93.84 223.988 94.88 223.508 96.08C223.054 97.28 222.828 98.56 222.828 99.92V100C222.828 101.36 223.054 102.653 223.508 103.88C223.988 105.08 224.641 106.133 225.468 107.04C226.321 107.92 227.334 108.627 228.508 109.16C229.681 109.693 230.961 109.96 232.348 109.96ZM240.788 111.84C239.588 112.693 238.281 113.347 236.868 113.8C235.454 114.253 233.921 114.48 232.268 114.48C230.108 114.48 228.134 114.107 226.348 113.36C224.561 112.587 223.028 111.547 221.748 110.24C220.468 108.933 219.468 107.413 218.748 105.68C218.028 103.92 217.668 102.053 217.668 100.08V100C217.668 98.0267 218.028 96.1733 218.748 94.44C219.468 92.68 220.481 91.1467 221.788 89.84C223.094 88.5067 224.641 87.4533 226.428 86.68C228.214 85.9067 230.188 85.52 232.348 85.52C234.508 85.52 236.481 85.9067 238.268 86.68C240.054 87.4267 241.588 88.4533 242.868 89.76C244.148 91.0667 245.148 92.6 245.868 94.36C246.588 96.0933 246.948 97.9467 246.948 99.92V100C246.948 101.6 246.708 103.133 246.228 104.6C245.748 106.04 245.041 107.373 244.108 108.6L247.308 111.32L244.148 114.84L240.788 111.84ZM265.772 114.44C263.959 114.44 262.319 114.187 260.852 113.68C259.386 113.147 258.132 112.36 257.092 111.32C256.052 110.28 255.252 109 254.692 107.48C254.132 105.933 253.852 104.147 253.852 102.12V86H258.772V101.92C258.772 104.533 259.399 106.52 260.652 107.88C261.906 109.24 263.639 109.92 265.852 109.92C268.039 109.92 269.759 109.267 271.012 107.96C272.266 106.653 272.892 104.707 272.892 102.12V86H277.812V101.88C277.812 103.96 277.519 105.787 276.932 107.36C276.372 108.933 275.572 110.253 274.532 111.32C273.492 112.36 272.226 113.147 270.732 113.68C269.266 114.187 267.612 114.44 265.772 114.44ZM286.246 86H291.166V114H286.246V86ZM306.941 90.56H298.061V86H320.781V90.56H311.901V114H306.941V90.56ZM327.398 86H348.158V90.4H332.318V97.68H346.358V102.08H332.318V109.6H348.358V114H327.398V86ZM368.595 114.48C366.542 114.48 364.649 114.107 362.915 113.36C361.182 112.613 359.675 111.6 358.395 110.32C357.142 109.013 356.155 107.48 355.435 105.72C354.715 103.96 354.355 102.08 354.355 100.08V100C354.355 98 354.702 96.1333 355.395 94.4C356.115 92.64 357.115 91.1067 358.395 89.8C359.675 88.4667 361.195 87.4267 362.955 86.68C364.715 85.9067 366.662 85.52 368.795 85.52C370.075 85.52 371.235 85.6267 372.275 85.84C373.342 86.0533 374.315 86.36 375.195 86.76C376.075 87.1333 376.889 87.5867 377.635 88.12C378.382 88.6533 379.089 89.24 379.755 89.88L376.595 93.52C375.475 92.48 374.289 91.64 373.035 91C371.782 90.36 370.355 90.04 368.755 90.04C367.422 90.04 366.182 90.3067 365.035 90.84C363.915 91.3467 362.942 92.0533 362.115 92.96C361.289 93.84 360.649 94.88 360.195 96.08C359.742 97.28 359.515 98.56 359.515 99.92V100C359.515 101.36 359.742 102.653 360.195 103.88C360.649 105.08 361.289 106.133 362.115 107.04C362.942 107.947 363.915 108.667 365.035 109.2C366.182 109.707 367.422 109.96 368.755 109.96C370.462 109.96 371.929 109.64 373.155 109C374.382 108.333 375.595 107.44 376.795 106.32L379.955 109.52C379.235 110.293 378.475 110.987 377.675 111.6C376.902 112.187 376.062 112.707 375.155 113.16C374.249 113.587 373.249 113.907 372.155 114.12C371.089 114.36 369.902 114.48 368.595 114.48ZM393.407 90.56H384.527V86H407.247V90.56H398.367V114H393.407V90.56ZM413.864 86H434.624V90.4H418.784V97.68H432.824V102.08H418.784V109.6H434.824V114H413.864V86ZM451.861 114.4C449.701 114.4 447.634 114.04 445.661 113.32C443.688 112.573 441.861 111.44 440.181 109.92L443.141 106.4C444.501 107.573 445.874 108.48 447.261 109.12C448.648 109.733 450.221 110.04 451.981 110.04C453.501 110.04 454.701 109.72 455.581 109.08C456.488 108.44 456.941 107.587 456.941 106.52V106.44C456.941 105.933 456.848 105.493 456.661 105.12C456.501 104.72 456.181 104.347 455.701 104C455.248 103.653 454.608 103.333 453.781 103.04C452.981 102.747 451.928 102.453 450.621 102.16C449.128 101.813 447.794 101.427 446.621 101C445.474 100.547 444.501 100.013 443.701 99.4C442.928 98.76 442.328 97.9867 441.901 97.08C441.501 96.1733 441.301 95.08 441.301 93.8V93.72C441.301 92.52 441.541 91.4267 442.021 90.44C442.501 89.4267 443.154 88.5733 443.981 87.88C444.834 87.16 445.848 86.6 447.021 86.2C448.194 85.8 449.474 85.6 450.861 85.6C452.914 85.6 454.754 85.9067 456.381 86.52C458.034 87.1067 459.581 87.9733 461.021 89.12L458.381 92.84C457.101 91.9067 455.834 91.2 454.581 90.72C453.328 90.2133 452.061 89.96 450.781 89.96C449.341 89.96 448.221 90.28 447.421 90.92C446.621 91.56 446.221 92.3467 446.221 93.28V93.36C446.221 93.8933 446.314 94.3733 446.501 94.8C446.688 95.2 447.021 95.5733 447.501 95.92C448.008 96.24 448.688 96.5467 449.541 96.84C450.421 97.1333 451.528 97.44 452.861 97.76C454.328 98.1333 455.621 98.5467 456.741 99C457.888 99.4533 458.834 100.013 459.581 100.68C460.328 101.32 460.888 102.08 461.261 102.96C461.661 103.813 461.861 104.813 461.861 105.96V106.04C461.861 107.347 461.608 108.52 461.101 109.56C460.621 110.6 459.941 111.48 459.061 112.2C458.181 112.92 457.128 113.467 455.901 113.84C454.674 114.213 453.328 114.4 451.861 114.4Z" fill="#212121"/>
<path d="M169.04 68.6C170.507 68.6 171.867 68.3733 173.12 67.92C174.373 67.44 175.493 66.7867 176.48 65.96L171.04 61.32L172.52 59.68L177.88 64.56C178.84 63.44 179.587 62.16 180.12 60.72C180.653 59.2533 180.92 57.7067 180.92 56.08V56C180.92 54.2667 180.613 52.64 180 51.12C179.413 49.5733 178.587 48.24 177.52 47.12C176.48 45.9733 175.227 45.0667 173.76 44.4C172.293 43.7333 170.693 43.4 168.96 43.4C167.227 43.4 165.627 43.7333 164.16 44.4C162.72 45.04 161.467 45.9333 160.4 47.08C159.36 48.2 158.547 49.52 157.96 51.04C157.373 52.56 157.08 54.1867 157.08 55.92V56C157.08 57.7333 157.373 59.3733 157.96 60.92C158.573 62.44 159.4 63.7733 160.44 64.92C161.507 66.04 162.773 66.9333 164.24 67.6C165.707 68.2667 167.307 68.6 169.04 68.6ZM178 67.28C176.8 68.2933 175.44 69.08 173.92 69.64C172.427 70.2 170.773 70.48 168.96 70.48C166.827 70.48 164.893 70.0933 163.16 69.32C161.453 68.52 159.987 67.4667 158.76 66.16C157.533 64.8267 156.587 63.2933 155.92 61.56C155.253 59.8267 154.92 58 154.92 56.08V56C154.92 54.08 155.253 52.2533 155.92 50.52C156.613 48.76 157.573 47.2133 158.8 45.88C160.027 44.5467 161.507 43.4933 163.24 42.72C164.973 41.92 166.907 41.52 169.04 41.52C171.147 41.52 173.067 41.92 174.8 42.72C176.533 43.4933 178.013 44.5467 179.24 45.88C180.467 47.1867 181.413 48.7067 182.08 50.44C182.747 52.1733 183.08 54 183.08 55.92C183.107 55.9467 183.107 55.9733 183.08 56C183.08 57.8667 182.76 59.6533 182.12 61.36C181.507 63.04 180.6 64.5467 179.4 65.88L183.4 69.24L181.92 70.84L178 67.28ZM201.184 70.44C199.504 70.44 197.958 70.1867 196.544 69.68C195.158 69.1467 193.944 68.3733 192.904 67.36C191.891 66.32 191.104 65.0533 190.544 63.56C189.984 62.0667 189.704 60.3333 189.704 58.36V42H191.784V58.16C191.784 61.4933 192.611 64.0667 194.264 65.88C195.944 67.6667 198.278 68.56 201.264 68.56C202.678 68.56 203.958 68.3467 205.104 67.92C206.251 67.4933 207.224 66.8533 208.024 66C208.851 65.1467 209.478 64.08 209.904 62.8C210.358 61.52 210.584 60.04 210.584 58.36V42H212.664V58.12C212.664 60.12 212.384 61.8933 211.824 63.44C211.264 64.96 210.478 66.24 209.464 67.28C208.451 68.32 207.238 69.1067 205.824 69.64C204.438 70.1733 202.891 70.44 201.184 70.44ZM239.495 60.28L232.135 44.08L224.735 60.28H239.495ZM231.175 41.8H233.175L246.215 70H243.935L240.375 62.16H223.855L220.295 70H218.135L231.175 41.8ZM259.897 43.92H250.137V42H271.737V43.92H261.977V70H259.897V43.92ZM289.594 56.52C290.767 56.52 291.847 56.3733 292.834 56.08C293.847 55.7867 294.714 55.3733 295.434 54.84C296.154 54.28 296.714 53.6133 297.114 52.84C297.541 52.04 297.754 51.1333 297.754 50.12V50.04C297.754 48.1467 297.047 46.6533 295.634 45.56C294.247 44.4667 292.274 43.92 289.714 43.92H280.154V56.52H289.594ZM278.074 42H289.834C291.567 42 293.101 42.2533 294.434 42.76C295.767 43.24 296.861 43.9067 297.714 44.76C298.381 45.4267 298.901 46.2133 299.274 47.12C299.647 48 299.834 48.9467 299.834 49.96V50.04C299.834 51.2133 299.621 52.2667 299.194 53.2C298.794 54.1067 298.221 54.8933 297.474 55.56C296.754 56.2267 295.887 56.7733 294.874 57.2C293.887 57.6 292.807 57.88 291.634 58.04L300.874 70H298.234L289.314 58.4H289.234H280.154V70H278.074V42ZM306.98 42H326.9V43.92H309.06V54.92H325.1V56.84H309.06V68.08H327.1V70H306.98V42ZM345.769 42H347.729L358.969 58.56L370.209 42H372.169V70H370.089V45.68L359.009 61.8H358.849L347.769 45.68V70H345.769V42ZM399.456 60.28L392.096 44.08L384.696 60.28H399.456ZM391.136 41.8H393.136L406.176 70H403.896L400.336 62.16H383.816L380.256 70H378.096L391.136 41.8ZM412.098 42H414.058L433.378 66.36V42H435.378V70H433.818L414.098 45.12V70H412.098V42ZM453.179 70.4C450.939 70.4 448.912 70.0267 447.099 69.28C445.312 68.5333 443.579 67.4133 441.899 65.92L443.259 64.36C444.032 65.08 444.792 65.7067 445.539 66.24C446.312 66.7467 447.099 67.1733 447.899 67.52C448.699 67.84 449.539 68.0933 450.419 68.28C451.299 68.44 452.259 68.52 453.299 68.52C454.339 68.52 455.299 68.3867 456.179 68.12C457.059 67.8267 457.806 67.44 458.419 66.96C459.032 66.4533 459.512 65.8667 459.859 65.2C460.206 64.5067 460.379 63.76 460.379 62.96V62.88C460.379 62.1333 460.259 61.4667 460.019 60.88C459.806 60.2933 459.392 59.76 458.779 59.28C458.192 58.8 457.392 58.3733 456.379 58C455.366 57.6 454.059 57.24 452.459 56.92C450.779 56.5733 449.339 56.1733 448.139 55.72C446.939 55.24 445.952 54.6933 445.179 54.08C444.432 53.44 443.886 52.7067 443.539 51.88C443.192 51.0533 443.019 50.1067 443.019 49.04V48.96C443.019 47.92 443.246 46.96 443.699 46.08C444.152 45.1733 444.779 44.3867 445.579 43.72C446.379 43.0533 447.326 42.5333 448.419 42.16C449.512 41.7867 450.712 41.6 452.019 41.6C454.046 41.6 455.792 41.88 457.259 42.44C458.752 43 460.206 43.8533 461.619 45L460.299 46.64C458.966 45.4933 457.619 44.68 456.259 44.2C454.926 43.72 453.486 43.48 451.939 43.48C450.899 43.48 449.952 43.6267 449.099 43.92C448.272 44.1867 447.552 44.56 446.939 45.04C446.352 45.52 445.899 46.08 445.579 46.72C445.259 47.36 445.099 48.04 445.099 48.76V48.84C445.099 49.5867 445.206 50.2667 445.419 50.88C445.659 51.4667 446.072 52.0133 446.659 52.52C447.272 53 448.112 53.44 449.179 53.84C450.246 54.24 451.606 54.6133 453.259 54.96C456.512 55.6267 458.859 56.5733 460.299 57.8C461.739 59 462.459 60.6267 462.459 62.68V62.76C462.459 63.88 462.219 64.92 461.739 65.88C461.286 66.8133 460.646 67.6133 459.819 68.28C459.019 68.9467 458.046 69.4667 456.899 69.84C455.779 70.2133 454.539 70.4 453.179 70.4Z" fill="#212121"/>
<g clip-path="url(#clip0_2_8)">
<path d="M132 86.7927H115.159V114.354H132V86.7927Z" fill="#212121"/>
<path d="M115.159 114.353H78.8424V140H115.159V114.353Z" fill="#212121"/>
<path d="M15.3561 114.353H79.0518V86.9868H47.4536L78.923 49.4392V5L9 88.5884V114.353H15.3561Z" fill="#212121"/>
</g>
<defs>
<clipPath id="clip0_2_8">
<rect width="123" height="135" fill="white" transform="translate(9 5)"/>
</clipPath>
</defs>
</svg>
