<svg width="33" height="33" viewBox="0 0 33 33" fill="none" xmlns="http://www.w3.org/2000/svg">
<path d="M2.75 8.25C2.75 5.21243 5.21243 2.75 8.25 2.75H24.75C27.7875 2.75 30.25 5.21243 30.25 8.25V24.75C30.25 27.7875 27.7875 30.25 24.75 30.25H8.25C5.21243 30.25 2.75 27.7875 2.75 24.75V8.25Z" stroke="white" stroke-width="1.5" stroke-linecap="round" stroke-linejoin="round"/>
<path d="M16.4998 22.6111C19.8748 22.6111 22.6109 19.8751 22.6109 16.5C22.6109 13.125 19.8748 10.3889 16.4998 10.3889C13.1247 10.3889 10.3887 13.125 10.3887 16.5C10.3887 19.8751 13.1247 22.6111 16.4998 22.6111Z" stroke="white" stroke-width="1.5" stroke-linecap="round" stroke-linejoin="round"/>
<path d="M24.75 8.27984V8.25" stroke="white" stroke-width="1.5" stroke-linecap="round" stroke-linejoin="round"/>
</svg>
