<svg width="237" height="66" viewBox="0 0 237 66" fill="none" xmlns="http://www.w3.org/2000/svg">
<path d="M12.78 29.95C13.88 29.95 14.9 29.78 15.84 29.44C16.78 29.08 17.62 28.59 18.36 27.97L14.28 24.49L15.39 23.26L19.41 26.92C20.13 26.08 20.69 25.12 21.09 24.04C21.49 22.94 21.69 21.78 21.69 20.56V20.5C21.69 19.2 21.46 17.98 21 16.84C20.56 15.68 19.94 14.68 19.14 13.84C18.36 12.98 17.42 12.3 16.32 11.8C15.22 11.3 14.02 11.05 12.72 11.05C11.42 11.05 10.22 11.3 9.12 11.8C8.04 12.28 7.1 12.95 6.3 13.81C5.52 14.65 4.91 15.64 4.47 16.78C4.03 17.92 3.81 19.14 3.81 20.44V20.5C3.81 21.8 4.03 23.03 4.47 24.19C4.93 25.33 5.55 26.33 6.33 27.19C7.13 28.03 8.08 28.7 9.18 29.2C10.28 29.7 11.48 29.95 12.78 29.95ZM19.5 28.96C18.6 29.72 17.58 30.31 16.44 30.73C15.32 31.15 14.08 31.36 12.72 31.36C11.12 31.36 9.67 31.07 8.37 30.49C7.09 29.89 5.99 29.1 5.07 28.12C4.15 27.12 3.44 25.97 2.94 24.67C2.44 23.37 2.19 22 2.19 20.56V20.5C2.19 19.06 2.44 17.69 2.94 16.39C3.46 15.07 4.18 13.91 5.1 12.91C6.02 11.91 7.13 11.12 8.43 10.54C9.73 9.94 11.18 9.64 12.78 9.64C14.36 9.64 15.8 9.94 17.1 10.54C18.4 11.12 19.51 11.91 20.43 12.91C21.35 13.89 22.06 15.03 22.56 16.33C23.06 17.63 23.31 19 23.31 20.44C23.33 20.46 23.33 20.48 23.31 20.5C23.31 21.9 23.07 23.24 22.59 24.52C22.13 25.78 21.45 26.91 20.55 27.91L23.55 30.43L22.44 31.63L19.5 28.96ZM36.8883 31.33C35.6283 31.33 34.4683 31.14 33.4083 30.76C32.3683 30.36 31.4583 29.78 30.6783 29.02C29.9183 28.24 29.3283 27.29 28.9083 26.17C28.4883 25.05 28.2783 23.75 28.2783 22.27V10H29.8383V22.12C29.8383 24.62 30.4583 26.55 31.6983 27.91C32.9583 29.25 34.7083 29.92 36.9483 29.92C38.0083 29.92 38.9683 29.76 39.8283 29.44C40.6883 29.12 41.4183 28.64 42.0183 28C42.6383 27.36 43.1083 26.56 43.4283 25.6C43.7683 24.64 43.9383 23.53 43.9383 22.27V10H45.4983V22.09C45.4983 23.59 45.2883 24.92 44.8683 26.08C44.4483 27.22 43.8583 28.18 43.0983 28.96C42.3383 29.74 41.4283 30.33 40.3683 30.73C39.3283 31.13 38.1683 31.33 36.8883 31.33ZM65.6213 23.71L60.1013 11.56L54.5513 23.71H65.6213ZM59.3813 9.85H60.8813L70.6613 31H68.9513L66.2813 25.12H53.8913L51.2213 31H49.6013L59.3813 9.85ZM80.9224 11.44H73.6024V10H89.8024V11.44H82.4824V31H80.9224V11.44ZM103.196 20.89C104.076 20.89 104.886 20.78 105.626 20.56C106.386 20.34 107.036 20.03 107.576 19.63C108.116 19.21 108.536 18.71 108.836 18.13C109.156 17.53 109.316 16.85 109.316 16.09V16.03C109.316 14.61 108.786 13.49 107.726 12.67C106.686 11.85 105.206 11.44 103.286 11.44H96.1155V20.89H103.196ZM94.5555 10H103.376C104.676 10 105.826 10.19 106.826 10.57C107.826 10.93 108.646 11.43 109.286 12.07C109.786 12.57 110.176 13.16 110.456 13.84C110.736 14.5 110.876 15.21 110.876 15.97V16.03C110.876 16.91 110.716 17.7 110.396 18.4C110.096 19.08 109.666 19.67 109.106 20.17C108.566 20.67 107.916 21.08 107.156 21.4C106.416 21.7 105.606 21.91 104.726 22.03L111.656 31H109.676L102.986 22.3H102.926H96.1155V31H94.5555V10ZM116.235 10H131.175V11.44H117.795V19.69H129.825V21.13H117.795V29.56H131.325V31H116.235V10ZM145.327 10H146.797L155.227 22.42L163.657 10H165.127V31H163.567V12.76L155.257 24.85H155.137L146.827 12.76V31H145.327V10ZM185.592 23.71L180.072 11.56L174.522 23.71H185.592ZM179.352 9.85H180.852L190.632 31H188.922L186.252 25.12H173.862L171.192 31H169.572L179.352 9.85ZM195.073 10H196.543L211.033 28.27V10H212.533V31H211.363L196.573 12.34V31H195.073V10ZM225.884 31.3C224.204 31.3 222.684 31.02 221.324 30.46C219.984 29.9 218.684 29.06 217.424 27.94L218.444 26.77C219.024 27.31 219.594 27.78 220.154 28.18C220.734 28.56 221.324 28.88 221.924 29.14C222.524 29.38 223.154 29.57 223.814 29.71C224.474 29.83 225.194 29.89 225.974 29.89C226.754 29.89 227.474 29.79 228.134 29.59C228.794 29.37 229.354 29.08 229.814 28.72C230.274 28.34 230.634 27.9 230.894 27.4C231.154 26.88 231.284 26.32 231.284 25.72V25.66C231.284 25.1 231.194 24.6 231.014 24.16C230.854 23.72 230.544 23.32 230.084 22.96C229.644 22.6 229.044 22.28 228.284 22C227.524 21.7 226.544 21.43 225.344 21.19C224.084 20.93 223.004 20.63 222.104 20.29C221.204 19.93 220.464 19.52 219.884 19.06C219.324 18.58 218.914 18.03 218.654 17.41C218.394 16.79 218.264 16.08 218.264 15.28V15.22C218.264 14.44 218.434 13.72 218.774 13.06C219.114 12.38 219.584 11.79 220.184 11.29C220.784 10.79 221.494 10.4 222.314 10.12C223.134 9.84 224.034 9.7 225.014 9.7C226.534 9.7 227.844 9.91 228.944 10.33C230.064 10.75 231.154 11.39 232.214 12.25L231.224 13.48C230.224 12.62 229.214 12.01 228.194 11.65C227.194 11.29 226.114 11.11 224.954 11.11C224.174 11.11 223.464 11.22 222.824 11.44C222.204 11.64 221.664 11.92 221.204 12.28C220.764 12.64 220.424 13.06 220.184 13.54C219.944 14.02 219.824 14.53 219.824 15.07V15.13C219.824 15.69 219.904 16.2 220.064 16.66C220.244 17.1 220.554 17.51 220.994 17.89C221.454 18.25 222.084 18.58 222.884 18.88C223.684 19.18 224.704 19.46 225.944 19.72C228.384 20.22 230.144 20.93 231.224 21.85C232.304 22.75 232.844 23.97 232.844 25.51V25.57C232.844 26.41 232.664 27.19 232.304 27.91C231.964 28.61 231.484 29.21 230.864 29.71C230.264 30.21 229.534 30.6 228.674 30.88C227.834 31.16 226.904 31.3 225.884 31.3Z" fill="white"/>
<path d="M15.42 54.66L11.79 46.26L8.19 54.66H15.42ZM10.14 41.85H13.56L22.8 63H18.9L16.77 57.93H6.84L4.68 63H0.9L10.14 41.85ZM36.5412 52.41C37.8612 52.41 38.9112 52.1 39.6912 51.48C40.4712 50.84 40.8612 49.98 40.8612 48.9V48.84C40.8612 47.7 40.4812 46.84 39.7212 46.26C38.9612 45.66 37.8912 45.36 36.5112 45.36H31.1412V52.41H36.5412ZM27.4512 42H36.8112C38.1312 42 39.3012 42.19 40.3212 42.57C41.3412 42.93 42.1912 43.44 42.8712 44.1C43.4312 44.68 43.8612 45.35 44.1612 46.11C44.4612 46.87 44.6112 47.71 44.6112 48.63V48.69C44.6112 49.55 44.4812 50.33 44.2212 51.03C43.9812 51.71 43.6412 52.32 43.2012 52.86C42.7612 53.38 42.2312 53.83 41.6112 54.21C41.0112 54.57 40.3412 54.85 39.6012 55.05L45.2712 63H40.9212L35.7612 55.68H35.7012H31.1412V63H27.4512V42ZM60.2609 59.97C60.9609 59.97 61.6109 59.88 62.2109 59.7C62.8109 59.52 63.3609 59.27 63.8609 58.95L60.2609 55.89L62.6309 53.19L66.2609 56.49C66.9809 55.39 67.3409 54.08 67.3409 52.56V52.5C67.3409 51.48 67.1609 50.52 66.8009 49.62C66.4609 48.7 65.9709 47.91 65.3309 47.25C64.7109 46.57 63.9609 46.03 63.0809 45.63C62.2009 45.23 61.2409 45.03 60.2009 45.03C59.1609 45.03 58.2009 45.23 57.3209 45.63C56.4609 46.01 55.7209 46.54 55.1009 47.22C54.4809 47.88 53.9909 48.66 53.6309 49.56C53.2909 50.46 53.1209 51.42 53.1209 52.44V52.5C53.1209 53.52 53.2909 54.49 53.6309 55.41C53.9909 56.31 54.4809 57.1 55.1009 57.78C55.7409 58.44 56.5009 58.97 57.3809 59.37C58.2609 59.77 59.2209 59.97 60.2609 59.97ZM66.5909 61.38C65.6909 62.02 64.7109 62.51 63.6509 62.85C62.5909 63.19 61.4409 63.36 60.2009 63.36C58.5809 63.36 57.1009 63.08 55.7609 62.52C54.4209 61.94 53.2709 61.16 52.3109 60.18C51.3509 59.2 50.6009 58.06 50.0609 56.76C49.5209 55.44 49.2509 54.04 49.2509 52.56V52.5C49.2509 51.02 49.5209 49.63 50.0609 48.33C50.6009 47.01 51.3609 45.86 52.3409 44.88C53.3209 43.88 54.4809 43.09 55.8209 42.51C57.1609 41.93 58.6409 41.64 60.2609 41.64C61.8809 41.64 63.3609 41.93 64.7009 42.51C66.0409 43.07 67.1909 43.84 68.1509 44.82C69.1109 45.8 69.8609 46.95 70.4009 48.27C70.9409 49.57 71.2109 50.96 71.2109 52.44V52.5C71.2109 53.7 71.0309 54.85 70.6709 55.95C70.3109 57.03 69.7809 58.03 69.0809 58.95L71.4809 60.99L69.1109 63.63L66.5909 61.38ZM85.3291 63.33C83.9691 63.33 82.7391 63.14 81.6391 62.76C80.5391 62.36 79.5991 61.77 78.8191 60.99C78.0391 60.21 77.4391 59.25 77.0191 58.11C76.5991 56.95 76.3891 55.61 76.3891 54.09V42H80.0791V53.94C80.0791 55.9 80.5491 57.39 81.4891 58.41C82.4291 59.43 83.7291 59.94 85.3891 59.94C87.0291 59.94 88.3191 59.45 89.2591 58.47C90.1991 57.49 90.6691 56.03 90.6691 54.09V42H94.3591V53.91C94.3591 55.47 94.1391 56.84 93.6991 58.02C93.2791 59.2 92.6791 60.19 91.8991 60.99C91.1191 61.77 90.1691 62.36 89.0491 62.76C87.9491 63.14 86.7091 63.33 85.3291 63.33ZM100.684 42H104.374V63H100.684V42ZM116.206 45.42H109.546V42H126.586V45.42H119.926V63H116.206V45.42ZM131.549 42H147.119V45.3H135.239V50.76H145.769V54.06H135.239V59.7H147.269V63H131.549V42ZM162.446 63.36C160.906 63.36 159.486 63.08 158.186 62.52C156.886 61.96 155.756 61.2 154.796 60.24C153.856 59.26 153.116 58.11 152.576 56.79C152.036 55.47 151.766 54.06 151.766 52.56V52.5C151.766 51 152.026 49.6 152.546 48.3C153.086 46.98 153.836 45.83 154.796 44.85C155.756 43.85 156.896 43.07 158.216 42.51C159.536 41.93 160.996 41.64 162.596 41.64C163.556 41.64 164.426 41.72 165.206 41.88C166.006 42.04 166.736 42.27 167.396 42.57C168.056 42.85 168.666 43.19 169.226 43.59C169.786 43.99 170.316 44.43 170.816 44.91L168.446 47.64C167.606 46.86 166.716 46.23 165.776 45.75C164.836 45.27 163.766 45.03 162.566 45.03C161.566 45.03 160.636 45.23 159.776 45.63C158.936 46.01 158.206 46.54 157.586 47.22C156.966 47.88 156.486 48.66 156.146 49.56C155.806 50.46 155.636 51.42 155.636 52.44V52.5C155.636 53.52 155.806 54.49 156.146 55.41C156.486 56.31 156.966 57.1 157.586 57.78C158.206 58.46 158.936 59 159.776 59.4C160.636 59.78 161.566 59.97 162.566 59.97C163.846 59.97 164.946 59.73 165.866 59.25C166.786 58.75 167.696 58.08 168.596 57.24L170.966 59.64C170.426 60.22 169.856 60.74 169.256 61.2C168.676 61.64 168.046 62.03 167.366 62.37C166.686 62.69 165.936 62.93 165.116 63.09C164.316 63.27 163.426 63.36 162.446 63.36ZM181.055 45.42H174.395V42H191.435V45.42H184.775V63H181.055V45.42ZM196.398 42H211.968V45.3H200.088V50.76H210.618V54.06H200.088V59.7H212.118V63H196.398V42ZM224.896 63.3C223.276 63.3 221.726 63.03 220.246 62.49C218.766 61.93 217.396 61.08 216.136 59.94L218.356 57.3C219.376 58.18 220.406 58.86 221.446 59.34C222.486 59.8 223.666 60.03 224.986 60.03C226.126 60.03 227.026 59.79 227.686 59.31C228.366 58.83 228.706 58.19 228.706 57.39V57.33C228.706 56.95 228.636 56.62 228.496 56.34C228.376 56.04 228.136 55.76 227.776 55.5C227.436 55.24 226.956 55 226.336 54.78C225.736 54.56 224.946 54.34 223.966 54.12C222.846 53.86 221.846 53.57 220.966 53.25C220.106 52.91 219.376 52.51 218.776 52.05C218.196 51.57 217.746 50.99 217.426 50.31C217.126 49.63 216.976 48.81 216.976 47.85V47.79C216.976 46.89 217.156 46.07 217.516 45.33C217.876 44.57 218.366 43.93 218.986 43.41C219.626 42.87 220.386 42.45 221.266 42.15C222.146 41.85 223.106 41.7 224.146 41.7C225.686 41.7 227.066 41.93 228.286 42.39C229.526 42.83 230.686 43.48 231.766 44.34L229.786 47.13C228.826 46.43 227.876 45.9 226.936 45.54C225.996 45.16 225.046 44.97 224.086 44.97C223.006 44.97 222.166 45.21 221.566 45.69C220.966 46.17 220.666 46.76 220.666 47.46V47.52C220.666 47.92 220.736 48.28 220.876 48.6C221.016 48.9 221.266 49.18 221.626 49.44C222.006 49.68 222.516 49.91 223.156 50.13C223.816 50.35 224.646 50.58 225.646 50.82C226.746 51.1 227.716 51.41 228.556 51.75C229.416 52.09 230.126 52.51 230.686 53.01C231.246 53.49 231.666 54.06 231.946 54.72C232.246 55.36 232.396 56.11 232.396 56.97V57.03C232.396 58.01 232.206 58.89 231.826 59.67C231.466 60.45 230.956 61.11 230.296 61.65C229.636 62.19 228.846 62.6 227.926 62.88C227.006 63.16 225.996 63.3 224.896 63.3Z" fill="white"/>
</svg>
