<svg width="639" height="162" viewBox="0 0 639 162" fill="none" xmlns="http://www.w3.org/2000/svg">
<g clip-path="url(#clip0_68_37)">
<path d="M198.56 59.9C200.76 59.9 202.8 59.56 204.68 58.88C206.56 58.16 208.24 57.18 209.72 55.94L201.56 48.98L203.78 46.52L211.82 53.84C213.26 52.16 214.38 50.24 215.18 48.08C215.98 45.88 216.38 43.56 216.38 41.12V41C216.38 38.4 215.92 35.96 215 33.68C214.12 31.36 212.88 29.36 211.28 27.68C209.72 25.96 207.84 24.6 205.64 23.6C203.44 22.6 201.04 22.1 198.44 22.1C195.84 22.1 193.44 22.6 191.24 23.6C189.08 24.56 187.2 25.9 185.6 27.62C184.04 29.3 182.82 31.28 181.94 33.56C181.06 35.84 180.62 38.28 180.62 40.88V41C180.62 43.6 181.06 46.06 181.94 48.38C182.86 50.66 184.1 52.66 185.66 54.38C187.26 56.06 189.16 57.4 191.36 58.4C193.56 59.4 195.96 59.9 198.56 59.9ZM212 57.92C210.2 59.44 208.16 60.62 205.88 61.46C203.64 62.3 201.16 62.72 198.44 62.72C195.24 62.72 192.34 62.14 189.74 60.98C187.18 59.78 184.98 58.2 183.14 56.24C181.3 54.24 179.88 51.94 178.88 49.34C177.88 46.74 177.38 44 177.38 41.12V41C177.38 38.12 177.88 35.38 178.88 32.78C179.92 30.14 181.36 27.82 183.2 25.82C185.04 23.82 187.26 22.24 189.86 21.08C192.46 19.88 195.36 19.28 198.56 19.28C201.72 19.28 204.6 19.88 207.2 21.08C209.8 22.24 212.02 23.82 213.86 25.82C215.7 27.78 217.12 30.06 218.12 32.66C219.12 35.26 219.62 38 219.62 40.88C219.66 40.92 219.66 40.96 219.62 41C219.62 43.8 219.14 46.48 218.18 49.04C217.26 51.56 215.9 53.82 214.1 55.82L220.1 60.86L217.88 63.26L212 57.92ZM246.777 62.66C244.257 62.66 241.937 62.28 239.817 61.52C237.737 60.72 235.917 59.56 234.357 58.04C232.837 56.48 231.657 54.58 230.817 52.34C229.977 50.1 229.557 47.5 229.557 44.54V20H232.677V44.24C232.677 49.24 233.917 53.1 236.397 55.82C238.917 58.5 242.417 59.84 246.897 59.84C249.017 59.84 250.937 59.52 252.657 58.88C254.377 58.24 255.837 57.28 257.037 56C258.277 54.72 259.217 53.12 259.857 51.2C260.537 49.28 260.877 47.06 260.877 44.54V20H263.997V44.18C263.997 47.18 263.577 49.84 262.737 52.16C261.897 54.44 260.717 56.36 259.197 57.92C257.677 59.48 255.857 60.66 253.737 61.46C251.657 62.26 249.337 62.66 246.777 62.66ZM304.243 47.42L293.203 23.12L282.103 47.42H304.243ZM291.763 19.7H294.763L314.323 62H310.903L305.563 50.24H280.783L275.443 62H272.203L291.763 19.7ZM334.845 22.88H320.205V20H352.605V22.88H337.965V62H334.845V22.88ZM379.391 41.78C381.151 41.78 382.771 41.56 384.251 41.12C385.771 40.68 387.071 40.06 388.151 39.26C389.231 38.42 390.071 37.42 390.671 36.26C391.311 35.06 391.631 33.7 391.631 32.18V32.06C391.631 29.22 390.571 26.98 388.451 25.34C386.371 23.7 383.411 22.88 379.571 22.88H365.231V41.78H379.391ZM362.111 20H379.751C382.351 20 384.651 20.38 386.651 21.14C388.651 21.86 390.291 22.86 391.571 24.14C392.571 25.14 393.351 26.32 393.911 27.68C394.471 29 394.751 30.42 394.751 31.94V32.06C394.751 33.82 394.431 35.4 393.791 36.8C393.191 38.16 392.331 39.34 391.211 40.34C390.131 41.34 388.831 42.16 387.311 42.8C385.831 43.4 384.211 43.82 382.451 44.06L396.311 62H392.351L378.971 44.6H378.851H365.231V62H362.111V20ZM405.47 20H435.35V22.88H408.59V39.38H432.65V42.26H408.59V59.12H435.65V62H405.47V20ZM463.654 20H466.594L483.454 44.84L500.314 20H503.254V62H500.134V25.52L483.514 49.7H483.274L466.654 25.52V62H463.654V20ZM544.184 47.42L533.144 23.12L522.044 47.42H544.184ZM531.704 19.7H534.704L554.264 62H550.844L545.504 50.24H520.724L515.384 62H512.144L531.704 19.7ZM563.146 20H566.086L595.066 56.54V20H598.066V62H595.726L566.146 24.68V62H563.146V20ZM624.769 62.6C621.409 62.6 618.369 62.04 615.649 60.92C612.969 59.8 610.369 58.12 607.849 55.88L609.889 53.54C611.049 54.62 612.189 55.56 613.309 56.36C614.469 57.12 615.649 57.76 616.849 58.28C618.049 58.76 619.309 59.14 620.629 59.42C621.949 59.66 623.389 59.78 624.949 59.78C626.509 59.78 627.949 59.58 629.269 59.18C630.589 58.74 631.709 58.16 632.629 57.44C633.549 56.68 634.269 55.8 634.789 54.8C635.309 53.76 635.569 52.64 635.569 51.44V51.32C635.569 50.2 635.389 49.2 635.029 48.32C634.709 47.44 634.089 46.64 633.169 45.92C632.289 45.2 631.089 44.56 629.569 44C628.049 43.4 626.089 42.86 623.689 42.38C621.169 41.86 619.009 41.26 617.209 40.58C615.409 39.86 613.929 39.04 612.769 38.12C611.649 37.16 610.829 36.06 610.309 34.82C609.789 33.58 609.529 32.16 609.529 30.56V30.44C609.529 28.88 609.869 27.44 610.549 26.12C611.229 24.76 612.169 23.58 613.369 22.58C614.569 21.58 615.989 20.8 617.629 20.24C619.269 19.68 621.069 19.4 623.029 19.4C626.069 19.4 628.689 19.82 630.889 20.66C633.129 21.5 635.309 22.78 637.429 24.5L635.449 26.96C633.449 25.24 631.429 24.02 629.389 23.3C627.389 22.58 625.229 22.22 622.909 22.22C621.349 22.22 619.929 22.44 618.649 22.88C617.409 23.28 616.329 23.84 615.409 24.56C614.529 25.28 613.849 26.12 613.369 27.08C612.889 28.04 612.649 29.06 612.649 30.14V30.26C612.649 31.38 612.809 32.4 613.129 33.32C613.489 34.2 614.109 35.02 614.989 35.78C615.909 36.5 617.169 37.16 618.769 37.76C620.369 38.36 622.409 38.92 624.889 39.44C629.769 40.44 633.289 41.86 635.449 43.7C637.609 45.5 638.689 47.94 638.689 51.02V51.14C638.689 52.82 638.329 54.38 637.609 55.82C636.929 57.22 635.969 58.42 634.729 59.42C633.529 60.42 632.069 61.2 630.349 61.76C628.669 62.32 626.809 62.6 624.769 62.6Z" fill="#323232"/>
<path d="M203.84 106.32L196.58 89.52L189.38 106.32H203.84ZM193.28 80.7H200.12L218.6 123H210.8L206.54 112.86H186.68L182.36 123H174.8L193.28 80.7ZM246.082 101.82C248.722 101.82 250.822 101.2 252.382 99.96C253.942 98.68 254.722 96.96 254.722 94.8V94.68C254.722 92.4 253.962 90.68 252.442 89.52C250.922 88.32 248.782 87.72 246.022 87.72H235.282V101.82H246.082ZM227.902 81H246.622C249.262 81 251.602 81.38 253.642 82.14C255.682 82.86 257.382 83.88 258.742 85.2C259.862 86.36 260.722 87.7 261.322 89.22C261.922 90.74 262.222 92.42 262.222 94.26V94.38C262.222 96.1 261.962 97.66 261.442 99.06C260.962 100.42 260.282 101.64 259.402 102.72C258.522 103.76 257.462 104.66 256.222 105.42C255.022 106.14 253.682 106.7 252.202 107.1L263.542 123H254.842L244.522 108.36H244.402H235.282V123H227.902V81ZM293.522 116.94C294.922 116.94 296.222 116.76 297.422 116.4C298.622 116.04 299.722 115.54 300.722 114.9L293.522 108.78L298.262 103.38L305.522 109.98C306.962 107.78 307.682 105.16 307.682 102.12V102C307.682 99.96 307.322 98.04 306.602 96.24C305.922 94.4 304.942 92.82 303.662 91.5C302.422 90.14 300.922 89.06 299.162 88.26C297.402 87.46 295.482 87.06 293.402 87.06C291.322 87.06 289.402 87.46 287.642 88.26C285.922 89.02 284.442 90.08 283.202 91.44C281.962 92.76 280.982 94.32 280.262 96.12C279.582 97.92 279.242 99.84 279.242 101.88V102C279.242 104.04 279.582 105.98 280.262 107.82C280.982 109.62 281.962 111.2 283.202 112.56C284.482 113.88 286.002 114.94 287.762 115.74C289.522 116.54 291.442 116.94 293.522 116.94ZM306.182 119.76C304.382 121.04 302.422 122.02 300.302 122.7C298.182 123.38 295.882 123.72 293.402 123.72C290.162 123.72 287.202 123.16 284.522 122.04C281.842 120.88 279.542 119.32 277.622 117.36C275.702 115.4 274.202 113.12 273.122 110.52C272.042 107.88 271.502 105.08 271.502 102.12V102C271.502 99.04 272.042 96.26 273.122 93.66C274.202 91.02 275.722 88.72 277.682 86.76C279.642 84.76 281.962 83.18 284.642 82.02C287.322 80.86 290.282 80.28 293.522 80.28C296.762 80.28 299.722 80.86 302.402 82.02C305.082 83.14 307.382 84.68 309.302 86.64C311.222 88.6 312.722 90.9 313.802 93.54C314.882 96.14 315.422 98.92 315.422 101.88V102C315.422 104.4 315.062 106.7 314.342 108.9C313.622 111.06 312.562 113.06 311.162 114.9L315.962 118.98L311.222 124.26L306.182 119.76ZM343.658 123.66C340.938 123.66 338.478 123.28 336.278 122.52C334.078 121.72 332.198 120.54 330.638 118.98C329.078 117.42 327.878 115.5 327.038 113.22C326.198 110.9 325.778 108.22 325.778 105.18V81H333.158V104.88C333.158 108.8 334.098 111.78 335.978 113.82C337.858 115.86 340.458 116.88 343.778 116.88C347.058 116.88 349.638 115.9 351.518 113.94C353.398 111.98 354.338 109.06 354.338 105.18V81H361.718V104.82C361.718 107.94 361.278 110.68 360.398 113.04C359.558 115.4 358.358 117.38 356.798 118.98C355.238 120.54 353.338 121.72 351.098 122.52C348.898 123.28 346.418 123.66 343.658 123.66ZM374.368 81H381.748V123H374.368V81ZM405.411 87.84H392.091V81H426.171V87.84H412.851V123H405.411V87.84ZM436.098 81H467.238V87.6H443.478V98.52H464.538V105.12H443.478V116.4H467.538V123H436.098V81ZM497.893 123.72C494.813 123.72 491.973 123.16 489.373 122.04C486.773 120.92 484.513 119.4 482.593 117.48C480.713 115.52 479.233 113.22 478.153 110.58C477.073 107.94 476.533 105.12 476.533 102.12V102C476.533 99 477.053 96.2 478.093 93.6C479.173 90.96 480.673 88.66 482.593 86.7C484.513 84.7 486.793 83.14 489.433 82.02C492.073 80.86 494.993 80.28 498.193 80.28C500.113 80.28 501.853 80.44 503.413 80.76C505.013 81.08 506.473 81.54 507.793 82.14C509.113 82.7 510.333 83.38 511.453 84.18C512.573 84.98 513.633 85.86 514.633 86.82L509.893 92.28C508.213 90.72 506.433 89.46 504.553 88.5C502.673 87.54 500.533 87.06 498.133 87.06C496.133 87.06 494.273 87.46 492.553 88.26C490.873 89.02 489.413 90.08 488.173 91.44C486.933 92.76 485.973 94.32 485.293 96.12C484.613 97.92 484.273 99.84 484.273 101.88V102C484.273 104.04 484.613 105.98 485.293 107.82C485.973 109.62 486.933 111.2 488.173 112.56C489.413 113.92 490.873 115 492.553 115.8C494.273 116.56 496.133 116.94 498.133 116.94C500.693 116.94 502.893 116.46 504.733 115.5C506.573 114.5 508.393 113.16 510.193 111.48L514.933 116.28C513.853 117.44 512.713 118.48 511.513 119.4C510.353 120.28 509.093 121.06 507.733 121.74C506.373 122.38 504.873 122.86 503.233 123.18C501.633 123.54 499.853 123.72 497.893 123.72ZM535.11 87.84H521.79V81H555.87V87.84H542.55V123H535.11V87.84ZM565.796 81H596.936V87.6H573.176V98.52H594.236V105.12H573.176V116.4H597.236V123H565.796V81ZM622.791 123.6C619.551 123.6 616.451 123.06 613.491 121.98C610.531 120.86 607.791 119.16 605.271 116.88L609.711 111.6C611.751 113.36 613.811 114.72 615.891 115.68C617.971 116.6 620.331 117.06 622.971 117.06C625.251 117.06 627.051 116.58 628.371 115.62C629.731 114.66 630.411 113.38 630.411 111.78V111.66C630.411 110.9 630.271 110.24 629.991 109.68C629.751 109.08 629.271 108.52 628.551 108C627.871 107.48 626.911 107 625.671 106.56C624.471 106.12 622.891 105.68 620.931 105.24C618.691 104.72 616.691 104.14 614.931 103.5C613.211 102.82 611.751 102.02 610.551 101.1C609.391 100.14 608.491 98.98 607.851 97.62C607.251 96.26 606.951 94.62 606.951 92.7V92.58C606.951 90.78 607.311 89.14 608.031 87.66C608.751 86.14 609.731 84.86 610.971 83.82C612.251 82.74 613.771 81.9 615.531 81.3C617.291 80.7 619.211 80.4 621.291 80.4C624.371 80.4 627.131 80.86 629.571 81.78C632.051 82.66 634.371 83.96 636.531 85.68L632.571 91.26C630.651 89.86 628.751 88.8 626.871 88.08C624.991 87.32 623.091 86.94 621.171 86.94C619.011 86.94 617.331 87.42 616.131 88.38C614.931 89.34 614.331 90.52 614.331 91.92V92.04C614.331 92.84 614.471 93.56 614.751 94.2C615.031 94.8 615.531 95.36 616.251 95.88C617.011 96.36 618.031 96.82 619.311 97.26C620.631 97.7 622.291 98.16 624.291 98.64C626.491 99.2 628.431 99.82 630.111 100.5C631.831 101.18 633.251 102.02 634.371 103.02C635.491 103.98 636.331 105.12 636.891 106.44C637.491 107.72 637.791 109.22 637.791 110.94V111.06C637.791 113.02 637.411 114.78 636.651 116.34C635.931 117.9 634.911 119.22 633.591 120.3C632.271 121.38 630.691 122.2 628.851 122.76C627.011 123.32 624.991 123.6 622.791 123.6Z" fill="#323232"/>
<mask id="mask0_68_37" style="mask-type:luminance" maskUnits="userSpaceOnUse" x="0" y="0" width="147" height="162">
<path d="M147 0H0V162H147V0Z" fill="white"/>
</mask>
<g mask="url(#mask0_68_37)">
<path d="M147 98.151H126.874V131.224H147V98.151Z" fill="#323232"/>
<path d="M126.873 131.224H83.47V162H126.873V131.224Z" fill="#323232"/>
<path d="M7.5964 131.224H83.72V98.384H45.957L83.566 53.327V0L0 100.306V131.224H7.5964Z" fill="#323232"/>
</g>
</g>
<defs>
<clipPath id="clip0_68_37">
<rect width="639" height="162" fill="white"/>
</clipPath>
</defs>
</svg>
