<svg width="1229" height="208" viewBox="0 0 1229 208" fill="none" xmlns="http://www.w3.org/2000/svg">
<path d="M283.56 89.9C285.76 89.9 287.8 89.56 289.68 88.88C291.56 88.16 293.24 87.18 294.72 85.94L286.56 78.98L288.78 76.52L296.82 83.84C298.26 82.16 299.38 80.24 300.18 78.08C300.98 75.88 301.38 73.56 301.38 71.12V71C301.38 68.4 300.92 65.96 300 63.68C299.12 61.36 297.88 59.36 296.28 57.68C294.72 55.96 292.84 54.6 290.64 53.6C288.44 52.6 286.04 52.1 283.44 52.1C280.84 52.1 278.44 52.6 276.24 53.6C274.08 54.56 272.2 55.9 270.6 57.62C269.04 59.3 267.82 61.28 266.94 63.56C266.06 65.84 265.62 68.28 265.62 70.88V71C265.62 73.6 266.06 76.06 266.94 78.38C267.86 80.66 269.1 82.66 270.66 84.38C272.26 86.06 274.16 87.4 276.36 88.4C278.56 89.4 280.96 89.9 283.56 89.9ZM297 87.92C295.2 89.44 293.16 90.62 290.88 91.46C288.64 92.3 286.16 92.72 283.44 92.72C280.24 92.72 277.34 92.14 274.74 90.98C272.18 89.78 269.98 88.2 268.14 86.24C266.3 84.24 264.88 81.94 263.88 79.34C262.88 76.74 262.38 74 262.38 71.12V71C262.38 68.12 262.88 65.38 263.88 62.78C264.92 60.14 266.36 57.82 268.2 55.82C270.04 53.82 272.26 52.24 274.86 51.08C277.46 49.88 280.36 49.28 283.56 49.28C286.72 49.28 289.6 49.88 292.2 51.08C294.8 52.24 297.02 53.82 298.86 55.82C300.7 57.78 302.12 60.06 303.12 62.66C304.12 65.26 304.62 68 304.62 70.88C304.66 70.92 304.66 70.96 304.62 71C304.62 73.8 304.14 76.48 303.18 79.04C302.26 81.56 300.9 83.82 299.1 85.82L305.1 90.86L302.88 93.26L297 87.92ZM331.777 92.66C329.257 92.66 326.937 92.28 324.817 91.52C322.737 90.72 320.917 89.56 319.357 88.04C317.837 86.48 316.657 84.58 315.817 82.34C314.977 80.1 314.557 77.5 314.557 74.54V50H317.677V74.24C317.677 79.24 318.917 83.1 321.397 85.82C323.917 88.5 327.417 89.84 331.897 89.84C334.017 89.84 335.937 89.52 337.657 88.88C339.377 88.24 340.837 87.28 342.037 86C343.277 84.72 344.217 83.12 344.857 81.2C345.537 79.28 345.877 77.06 345.877 74.54V50H348.997V74.18C348.997 77.18 348.577 79.84 347.737 82.16C346.897 84.44 345.717 86.36 344.197 87.92C342.677 89.48 340.857 90.66 338.737 91.46C336.657 92.26 334.337 92.66 331.777 92.66ZM389.243 77.42L378.203 53.12L367.103 77.42H389.243ZM376.763 49.7H379.763L399.323 92H395.903L390.563 80.24H365.783L360.443 92H357.203L376.763 49.7ZM419.845 52.88H405.205V50H437.605V52.88H422.965V92H419.845V52.88ZM464.391 71.78C466.151 71.78 467.771 71.56 469.251 71.12C470.771 70.68 472.071 70.06 473.151 69.26C474.231 68.42 475.071 67.42 475.671 66.26C476.311 65.06 476.631 63.7 476.631 62.18V62.06C476.631 59.22 475.571 56.98 473.451 55.34C471.371 53.7 468.411 52.88 464.571 52.88H450.231V71.78H464.391ZM447.111 50H464.751C467.351 50 469.651 50.38 471.651 51.14C473.651 51.86 475.291 52.86 476.571 54.14C477.571 55.14 478.351 56.32 478.911 57.68C479.471 59 479.751 60.42 479.751 61.94V62.06C479.751 63.82 479.431 65.4 478.791 66.8C478.191 68.16 477.331 69.34 476.211 70.34C475.131 71.34 473.831 72.16 472.311 72.8C470.831 73.4 469.211 73.82 467.451 74.06L481.311 92H477.351L463.971 74.6H463.851H450.231V92H447.111V50ZM490.47 50H520.35V52.88H493.59V69.38H517.65V72.26H493.59V89.12H520.65V92H490.47V50ZM548.654 50H551.594L568.454 74.84L585.314 50H588.254V92H585.134V55.52L568.514 79.7H568.274L551.654 55.52V92H548.654V50ZM629.184 77.42L618.144 53.12L607.044 77.42H629.184ZM616.704 49.7H619.704L639.264 92H635.844L630.504 80.24H605.724L600.384 92H597.144L616.704 49.7ZM648.146 50H651.086L680.066 86.54V50H683.066V92H680.726L651.146 54.68V92H648.146V50ZM709.769 92.6C706.409 92.6 703.369 92.04 700.649 90.92C697.969 89.8 695.369 88.12 692.849 85.88L694.889 83.54C696.049 84.62 697.189 85.56 698.309 86.36C699.469 87.12 700.649 87.76 701.849 88.28C703.049 88.76 704.309 89.14 705.629 89.42C706.949 89.66 708.389 89.78 709.949 89.78C711.509 89.78 712.949 89.58 714.269 89.18C715.589 88.74 716.709 88.16 717.629 87.44C718.549 86.68 719.269 85.8 719.789 84.8C720.309 83.76 720.569 82.64 720.569 81.44V81.32C720.569 80.2 720.389 79.2 720.029 78.32C719.709 77.44 719.089 76.64 718.169 75.92C717.289 75.2 716.089 74.56 714.569 74C713.049 73.4 711.089 72.86 708.689 72.38C706.169 71.86 704.009 71.26 702.209 70.58C700.409 69.86 698.929 69.04 697.769 68.12C696.649 67.16 695.829 66.06 695.309 64.82C694.789 63.58 694.529 62.16 694.529 60.56V60.44C694.529 58.88 694.869 57.44 695.549 56.12C696.229 54.76 697.169 53.58 698.369 52.58C699.569 51.58 700.989 50.8 702.629 50.24C704.269 49.68 706.069 49.4 708.029 49.4C711.069 49.4 713.689 49.82 715.889 50.66C718.129 51.5 720.309 52.78 722.429 54.5L720.449 56.96C718.449 55.24 716.429 54.02 714.389 53.3C712.389 52.58 710.229 52.22 707.909 52.22C706.349 52.22 704.929 52.44 703.649 52.88C702.409 53.28 701.329 53.84 700.409 54.56C699.529 55.28 698.849 56.12 698.369 57.08C697.889 58.04 697.649 59.06 697.649 60.14V60.26C697.649 61.38 697.809 62.4 698.129 63.32C698.489 64.2 699.109 65.02 699.989 65.78C700.909 66.5 702.169 67.16 703.769 67.76C705.369 68.36 707.409 68.92 709.889 69.44C714.769 70.44 718.289 71.86 720.449 73.7C722.609 75.5 723.689 77.94 723.689 81.02V81.14C723.689 82.82 723.329 84.38 722.609 85.82C721.929 87.22 720.969 88.42 719.729 89.42C718.529 90.42 717.069 91.2 715.349 91.76C713.669 92.32 711.809 92.6 709.769 92.6Z" fill="#323232"/>
<path d="M288.84 136.32L281.58 119.52L274.38 136.32H288.84ZM278.28 110.7H285.12L303.6 153H295.8L291.54 142.86H271.68L267.36 153H259.8L278.28 110.7ZM331.082 131.82C333.722 131.82 335.822 131.2 337.382 129.96C338.942 128.68 339.722 126.96 339.722 124.8V124.68C339.722 122.4 338.962 120.68 337.442 119.52C335.922 118.32 333.782 117.72 331.022 117.72H320.282V131.82H331.082ZM312.902 111H331.622C334.262 111 336.602 111.38 338.642 112.14C340.682 112.86 342.382 113.88 343.742 115.2C344.862 116.36 345.722 117.7 346.322 119.22C346.922 120.74 347.222 122.42 347.222 124.26V124.38C347.222 126.1 346.962 127.66 346.442 129.06C345.962 130.42 345.282 131.64 344.402 132.72C343.522 133.76 342.462 134.66 341.222 135.42C340.022 136.14 338.682 136.7 337.202 137.1L348.542 153H339.842L329.522 138.36H329.402H320.282V153H312.902V111ZM378.522 146.94C379.922 146.94 381.222 146.76 382.422 146.4C383.622 146.04 384.722 145.54 385.722 144.9L378.522 138.78L383.262 133.38L390.522 139.98C391.962 137.78 392.682 135.16 392.682 132.12V132C392.682 129.96 392.322 128.04 391.602 126.24C390.922 124.4 389.942 122.82 388.662 121.5C387.422 120.14 385.922 119.06 384.162 118.26C382.402 117.46 380.482 117.06 378.402 117.06C376.322 117.06 374.402 117.46 372.642 118.26C370.922 119.02 369.442 120.08 368.202 121.44C366.962 122.76 365.982 124.32 365.262 126.12C364.582 127.92 364.242 129.84 364.242 131.88V132C364.242 134.04 364.582 135.98 365.262 137.82C365.982 139.62 366.962 141.2 368.202 142.56C369.482 143.88 371.002 144.94 372.762 145.74C374.522 146.54 376.442 146.94 378.522 146.94ZM391.182 149.76C389.382 151.04 387.422 152.02 385.302 152.7C383.182 153.38 380.882 153.72 378.402 153.72C375.162 153.72 372.202 153.16 369.522 152.04C366.842 150.88 364.542 149.32 362.622 147.36C360.702 145.4 359.202 143.12 358.122 140.52C357.042 137.88 356.502 135.08 356.502 132.12V132C356.502 129.04 357.042 126.26 358.122 123.66C359.202 121.02 360.722 118.72 362.682 116.76C364.642 114.76 366.962 113.18 369.642 112.02C372.322 110.86 375.282 110.28 378.522 110.28C381.762 110.28 384.722 110.86 387.402 112.02C390.082 113.14 392.382 114.68 394.302 116.64C396.222 118.6 397.722 120.9 398.802 123.54C399.882 126.14 400.422 128.92 400.422 131.88V132C400.422 134.4 400.062 136.7 399.342 138.9C398.622 141.06 397.562 143.06 396.162 144.9L400.962 148.98L396.222 154.26L391.182 149.76ZM428.658 153.66C425.938 153.66 423.478 153.28 421.278 152.52C419.078 151.72 417.198 150.54 415.638 148.98C414.078 147.42 412.878 145.5 412.038 143.22C411.198 140.9 410.778 138.22 410.778 135.18V111H418.158V134.88C418.158 138.8 419.098 141.78 420.978 143.82C422.858 145.86 425.458 146.88 428.778 146.88C432.058 146.88 434.638 145.9 436.518 143.94C438.398 141.98 439.338 139.06 439.338 135.18V111H446.718V134.82C446.718 137.94 446.278 140.68 445.398 143.04C444.558 145.4 443.358 147.38 441.798 148.98C440.238 150.54 438.338 151.72 436.098 152.52C433.898 153.28 431.418 153.66 428.658 153.66ZM459.368 111H466.748V153H459.368V111ZM490.411 117.84H477.091V111H511.171V117.84H497.851V153H490.411V117.84ZM521.098 111H552.238V117.6H528.478V128.52H549.538V135.12H528.478V146.4H552.538V153H521.098V111ZM582.893 153.72C579.813 153.72 576.973 153.16 574.373 152.04C571.773 150.92 569.513 149.4 567.593 147.48C565.713 145.52 564.233 143.22 563.153 140.58C562.073 137.94 561.533 135.12 561.533 132.12V132C561.533 129 562.053 126.2 563.093 123.6C564.173 120.96 565.673 118.66 567.593 116.7C569.513 114.7 571.793 113.14 574.433 112.02C577.073 110.86 579.993 110.28 583.193 110.28C585.113 110.28 586.853 110.44 588.413 110.76C590.013 111.08 591.473 111.54 592.793 112.14C594.113 112.7 595.333 113.38 596.453 114.18C597.573 114.98 598.633 115.86 599.633 116.82L594.893 122.28C593.213 120.72 591.433 119.46 589.553 118.5C587.673 117.54 585.533 117.06 583.133 117.06C581.133 117.06 579.273 117.46 577.553 118.26C575.873 119.02 574.413 120.08 573.173 121.44C571.933 122.76 570.973 124.32 570.293 126.12C569.613 127.92 569.273 129.84 569.273 131.88V132C569.273 134.04 569.613 135.98 570.293 137.82C570.973 139.62 571.933 141.2 573.173 142.56C574.413 143.92 575.873 145 577.553 145.8C579.273 146.56 581.133 146.94 583.133 146.94C585.693 146.94 587.893 146.46 589.733 145.5C591.573 144.5 593.393 143.16 595.193 141.48L599.933 146.28C598.853 147.44 597.713 148.48 596.513 149.4C595.353 150.28 594.093 151.06 592.733 151.74C591.373 152.38 589.873 152.86 588.233 153.18C586.633 153.54 584.853 153.72 582.893 153.72ZM620.11 117.84H606.79V111H640.87V117.84H627.55V153H620.11V117.84ZM650.796 111H681.936V117.6H658.176V128.52H679.236V135.12H658.176V146.4H682.236V153H650.796V111ZM707.791 153.6C704.551 153.6 701.451 153.06 698.491 151.98C695.531 150.86 692.791 149.16 690.271 146.88L694.711 141.6C696.751 143.36 698.811 144.72 700.891 145.68C702.971 146.6 705.331 147.06 707.971 147.06C710.251 147.06 712.051 146.58 713.371 145.62C714.731 144.66 715.411 143.38 715.411 141.78V141.66C715.411 140.9 715.271 140.24 714.991 139.68C714.751 139.08 714.271 138.52 713.551 138C712.871 137.48 711.911 137 710.671 136.56C709.471 136.12 707.891 135.68 705.931 135.24C703.691 134.72 701.691 134.14 699.931 133.5C698.211 132.82 696.751 132.02 695.551 131.1C694.391 130.14 693.491 128.98 692.851 127.62C692.251 126.26 691.951 124.62 691.951 122.7V122.58C691.951 120.78 692.311 119.14 693.031 117.66C693.751 116.14 694.731 114.86 695.971 113.82C697.251 112.74 698.771 111.9 700.531 111.3C702.291 110.7 704.211 110.4 706.291 110.4C709.371 110.4 712.131 110.86 714.571 111.78C717.051 112.66 719.371 113.96 721.531 115.68L717.571 121.26C715.651 119.86 713.751 118.8 711.871 118.08C709.991 117.32 708.091 116.94 706.171 116.94C704.011 116.94 702.331 117.42 701.131 118.38C699.931 119.34 699.331 120.52 699.331 121.92V122.04C699.331 122.84 699.471 123.56 699.751 124.2C700.031 124.8 700.531 125.36 701.251 125.88C702.011 126.36 703.031 126.82 704.311 127.26C705.631 127.7 707.291 128.16 709.291 128.64C711.491 129.2 713.431 129.82 715.111 130.5C716.831 131.18 718.251 132.02 719.371 133.02C720.491 133.98 721.331 135.12 721.891 136.44C722.491 137.72 722.791 139.22 722.791 140.94V141.06C722.791 143.02 722.411 144.78 721.651 146.34C720.931 147.9 719.911 149.22 718.591 150.3C717.271 151.38 715.691 152.2 713.851 152.76C712.011 153.32 709.991 153.6 707.791 153.6Z" fill="#323232"/>
<g clip-path="url(#clip0_40_128)">
<path d="M232 128.151H211.874V161.224H232V128.151Z" fill="#323232"/>
<path d="M211.873 161.224H168.47V192H211.873V161.224Z" fill="#323232"/>
<path d="M92.5964 161.224H168.72V128.384H130.957L168.566 83.327V30L85 130.306V161.224H92.5964Z" fill="#323232"/>
</g>
<defs>
<clipPath id="clip0_40_128">
<rect width="147" height="162" fill="white" transform="translate(85 30)"/>
</clipPath>
</defs>
</svg>
